<?xml version="1.0" encoding="utf-8"?>
<!-- Generator: Adobe Illustrator 24.0.3, SVG Export Plug-In . SVG Version: 6.00 Build 0)  -->
<svg version="1.1" id="Layer_1" xmlns="http://www.w3.org/2000/svg" xmlns:xlink="http://www.w3.org/1999/xlink" x="0px" y="0px"
	 viewBox="0 0 500 225.6" style="enable-background:new 0 0 500 225.6;" xml:space="preserve">
<style type="text/css">
	.st0{fill:#FFFFFF;}
</style>
<title>MMF-Logo</title>
<g id="Layer_1_1_">
	<path class="st0" d="M293.9,87.6l-23.7,62.7h-8.1l-24-62.8l-1.3,63.3h-7.3l2.5-72.3h9.9l24.4,63.9l24.1-63.9h9.8l2.3,72.3h-7.5
		L293.9,87.6z"/>
	<path class="st0" d="M382,87.6l-23.7,62.7h-8.1l-24-62.8l-1.3,63.3h-7.3l2.4-72.3h10l24.4,63.9l24.1-63.9h9.8l2.3,72.3h-7.5
		L382,87.6z"/>
	<path class="st0" d="M407.4,78.5H450v6.9h-35.2v27H444v6.8h-29.2v31.6h-7.4V78.5z"/>
	<polygon class="st0" points="137.3,134.1 130.3,132.2 128.4,139.2 142.5,153.4 	"/>
	<polygon class="st0" points="127.3,143.4 121,166.8 123.4,175.6 148.5,175.6 144.4,160.5 	"/>
	<polygon class="st0" points="141.5,135.2 147.7,158.6 158.8,169.7 171.4,147.9 164.9,141.5 	"/>
	<polygon class="st0" points="93.8,160.5 89.7,175.6 114.8,175.6 117.2,166.8 110.9,143.4 	"/>
	<polygon class="st0" points="119.1,159.7 124.3,140.4 119.1,135.2 113.9,140.4 	"/>
	<polygon class="st0" points="128.4,86.4 130.3,93.4 137.3,91.6 142.5,72.2 	"/>
	<polygon class="st0" points="164.9,84.2 171.4,77.7 158.8,56 147.7,67 141.5,90.4 	"/>
	<polygon class="st0" points="144.4,65.1 148.5,50 123.4,50 121,58.8 127.3,82.3 	"/>
	<polygon class="st0" points="109.8,139.2 107.9,132.2 100.8,134.1 95.7,153.4 	"/>
	<polygon class="st0" points="73.3,141.5 66.8,147.9 79.4,169.7 90.5,158.6 96.7,135.2 	"/>
	<polygon class="st0" points="91.1,159 91.1,159 91.1,159 	"/>
	<polygon class="st0" points="91.6,118 96.7,112.8 91.6,107.7 72.2,112.8 	"/>
	<polygon class="st0" points="65.1,114.7 50,118.8 62.5,140.5 71.4,138.1 88.6,121 	"/>
	<polygon class="st0" points="100.8,91.6 107.9,93.4 109.8,86.4 95.7,72.2 	"/>
	<polygon class="st0" points="110.9,82.3 117.2,58.8 114.8,50 89.7,50 93.8,65.1 	"/>
	<polygon class="st0" points="111.3,83.6 111.3,83.6 111.3,83.6 	"/>
	<polygon class="st0" points="119.1,90.4 124.3,85.3 119.1,66 113.9,85.3 	"/>
	<polygon class="st0" points="97.8,131.1 99.7,124 92.7,122.1 78.5,136.2 	"/>
	<polygon class="st0" points="98.4,131.6 98.4,131.6 98.4,131.6 	"/>
	<polygon class="st0" points="71.4,87.5 62.5,85.1 50,106.9 65.1,110.9 75.7,108.1 88.6,104.6 	"/>
	<polygon class="st0" points="96.7,90.4 90.5,67 79.4,56 66.8,77.7 73.3,84.2 	"/>
	<polygon class="st0" points="92.7,103.5 99.7,101.6 97.8,94.6 78.5,89.4 	"/>
	<polygon class="st0" points="98.4,94 98.4,94 98.4,94 	"/>
	<polygon class="st0" points="146.6,107.7 141.5,112.8 146.6,118 165.9,112.8 	"/>
	<polygon class="st0" points="173.1,110.9 188.2,106.9 175.6,85.1 166.8,87.5 149.6,104.6 	"/>
	<polygon class="st0" points="140.4,94.6 138.5,101.6 145.5,103.5 159.7,89.4 	"/>
	<polygon class="st0" points="166.8,138.1 175.6,140.5 188.2,118.8 173.1,114.7 149.6,121 	"/>
	<polygon class="st0" points="148.3,120.6 148.3,120.6 148.3,120.6 	"/>
	<polygon class="st0" points="138.5,124 140.4,131.1 159.7,136.2 145.5,122.1 	"/>
</g>
</svg>
