<svg xmlns="http://www.w3.org/2000/svg" viewBox="0 0 500 225.64"><defs><style>.cls-1{fill:#0054a6;}.cls-2{fill:#232323;}.cls-3{fill:#0f7cb5;}.cls-3,.cls-4,.cls-5,.cls-6,.cls-7,.cls-8,.cls-9{stroke:#fff;stroke-miterlimit:10;stroke-width:4.37px;}.cls-4{fill:#dc3746;}.cls-5{fill:#633b6f;}.cls-6{fill:#fdc400;}.cls-7{fill:#4da458;}.cls-8{fill:#ed7218;}.cls-9{fill:#ccd1d4;}</style></defs><g id="Layer_1" data-name="Layer 1"><path class="cls-1" d="M286.9,87.6l-23.72,62.72h-8.1l-24-62.84-1.27,63.3h-7.29L225,78.46h9.95l24.42,63.87,24.07-63.87h9.83l2.32,72.32h-7.52Z"/><path class="cls-1" d="M375,87.6l-23.72,62.72h-8.1l-24-62.84-1.27,63.3h-7.29l2.43-72.32H323l24.42,63.87,24.07-63.87h9.83l2.32,72.32h-7.53Z"/><path class="cls-2" d="M400.42,78.46H443V85.4H407.82v27H437v6.83H407.82v31.59h-7.4Z"/><polygon class="cls-3" points="104.08 77.55 122.03 108.64 139.98 77.55 122.03 46.46 65.6 144.21 65.6 144.21 104.08 77.55"/><polygon class="cls-4" points="142.57 144.21 160.51 175.3 196.41 175.3 139.98 77.55 139.98 77.55 178.46 144.21 142.57 144.21"/><polygon class="cls-5" points="142.57 144.21 178.46 144.21 139.98 77.55 122.03 108.64 142.57 144.21"/><polygon class="cls-6" points="65.6 144.21 47.65 175.3 83.55 175.3 101.5 144.21 65.6 144.21"/><polygon class="cls-7" points="122.03 108.64 104.08 77.55 65.6 144.21 101.5 144.21 122.03 108.64"/><polygon class="cls-8" points="101.5 144.21 83.55 175.3 160.51 175.3 142.57 144.21 101.5 144.21"/><polygon class="cls-9" points="142.57 144.21 122.03 108.64 101.5 144.21 142.57 144.21"/></g></svg>
