<svg id="Layer_1" data-name="Layer 1" xmlns="http://www.w3.org/2000/svg" viewBox="0 0 400 125.6"><defs><style>.cls-1{fill:#0054a6;}.cls-2{fill:#fff;}.cls-3{fill:#4f518a;}.cls-4{fill:#652d90;}.cls-5{fill:#2e3192;}.cls-6{fill:#92278f;}.cls-7{fill:#704e8a;}.cls-8{fill:#88ab33;}.cls-9{fill:#01a650;}.cls-10{fill:#8bc800;}.cls-11{fill:#8b4b88;}.cls-12{fill:#ed1d23;}.cls-13{fill:#c37048;}.cls-14{fill:#f26623;}.cls-15{fill:#ccc433;}.cls-16{fill:#fef200;}.cls-17{fill:#c24448;}.cls-18{fill:#ff9400;}.cls-19{fill:#ffc500;}.cls-20{fill:#cca933;}.cls-21{fill:#349991;}.cls-22{fill:#01a89c;}.cls-23{fill:#339763;}.cls-24{fill:#326697;}</style></defs><title>MMF-Logo-Horizontal-01-FullColor-WhiteF</title><g id="Layer_1-2" data-name="Layer 1"><path class="cls-1" d="M293.9,87.6l-23.7,62.7h-8.1l-24-62.8-1.3,63.3h-7.3L232,78.5h9.9l24.4,63.9,24.1-63.9h9.8l2.3,72.3H295Z" transform="translate(-50 -50)"/><path class="cls-1" d="M382,87.6l-23.7,62.7h-8.1l-24-62.8-1.3,63.3h-7.3L320,78.5h10l24.4,63.9,24.1-63.9h9.8l2.3,72.3h-7.5Z" transform="translate(-50 -50)"/><path class="cls-2" d="M407.4,78.5H450v6.9H414.8v27H444v6.8H414.8v31.6h-7.4Z" transform="translate(-50 -50)"/><polygon class="cls-3" points="87.3 84.1 80.3 82.2 78.4 89.3 92.5 103.4 87.3 84.1"/><polygon class="cls-4" points="77.3 93.4 71 116.8 73.4 125.6 98.5 125.6 94.4 110.5 77.3 93.4"/><polygon class="cls-5" points="91.5 85.2 97.7 108.6 108.8 119.7 121.4 97.9 114.9 91.5 91.5 85.2"/><polygon class="cls-6" points="43.8 110.5 39.7 125.6 64.8 125.6 67.2 116.8 60.9 93.4 43.8 110.5"/><polygon class="cls-7" points="69.1 109.7 74.3 90.4 69.1 85.2 63.9 90.4 69.1 109.7"/><polygon class="cls-8" points="78.4 36.4 80.3 43.5 87.3 41.6 92.5 22.3 78.4 36.4"/><polygon class="cls-9" points="114.9 34.2 121.4 27.7 108.8 6 97.7 17 91.5 40.5 114.9 34.2"/><polygon class="cls-10" points="94.4 15.1 98.5 0 73.4 0 71 8.9 77.3 32.3 94.4 15.1"/><polygon class="cls-11" points="59.8 89.3 57.9 82.2 50.8 84.1 45.7 103.4 59.8 89.3"/><polygon class="cls-12" points="23.3 91.5 16.8 97.9 29.4 119.7 40.5 108.6 46.7 85.2 23.3 91.5"/><path class="cls-12" d="M91.1,159Z" transform="translate(-50 -50)"/><polygon class="cls-13" points="41.6 68 46.7 62.8 41.6 57.7 22.2 62.8 41.6 68"/><polygon class="cls-14" points="15.1 64.7 0 68.8 12.5 90.5 21.4 88.2 38.6 71 15.1 64.7"/><polygon class="cls-15" points="50.8 41.6 57.9 43.5 59.8 36.4 45.7 22.3 50.8 41.6"/><polygon class="cls-16" points="60.9 32.3 67.2 8.9 64.8 0 39.7 0 43.8 15.1 60.9 32.3"/><path class="cls-16" d="M111.3,83.6Z" transform="translate(-50 -50)"/><polygon class="cls-15" points="69.1 40.5 74.3 35.3 69.1 16 63.9 35.3 69.1 40.5"/><polygon class="cls-17" points="47.8 81.1 49.7 74 42.7 72.1 28.5 86.2 47.8 81.1"/><path class="cls-17" d="M98.4,131.7Z" transform="translate(-50 -50)"/><polygon class="cls-18" points="21.4 37.5 12.5 35.1 0 56.9 15.1 60.9 25.7 58.1 38.6 54.6 21.4 37.5"/><polygon class="cls-19" points="46.7 40.5 40.5 17 29.4 6 16.8 27.7 23.3 34.2 46.7 40.5"/><polygon class="cls-20" points="42.7 53.5 49.7 51.6 47.8 44.6 28.5 39.4 42.7 53.5"/><path class="cls-20" d="M98.4,94Z" transform="translate(-50 -50)"/><polygon class="cls-21" points="96.6 57.7 91.5 62.8 96.6 68 115.9 62.8 96.6 57.7"/><polygon class="cls-22" points="123.1 60.9 138.2 56.9 125.6 35.1 116.8 37.5 99.6 54.6 123.1 60.9"/><polygon class="cls-23" points="90.4 44.6 88.5 51.6 95.5 53.5 109.7 39.4 90.4 44.6"/><polygon class="cls-1" points="116.8 88.2 125.6 90.5 138.2 68.8 123.1 64.7 99.6 71 116.8 88.2"/><path class="cls-1" d="M148.3,120.6Z" transform="translate(-50 -50)"/><polygon class="cls-24" points="88.5 74 90.4 81.1 109.7 86.2 95.5 72.1 88.5 74"/></g></svg>
