<?xml version="1.0" encoding="utf-8"?>
<!-- Generator: Adobe Illustrator 23.0.3, SVG Export Plug-In . SVG Version: 6.00 Build 0)  -->
<svg version="1.1" id="Layer_1" xmlns="http://www.w3.org/2000/svg" xmlns:xlink="http://www.w3.org/1999/xlink" x="0px" y="0px"
	 viewBox="0 0 900 900" style="enable-background:new 0 0 900 900;" xml:space="preserve">
<style type="text/css">
	.st0{fill:#0054a6;}
</style>
<title>puzze_grey</title>
<path class="st0" d="M485.8,50v118.3c0,17.8,4.6,14.7,15.1,3.6c8.2-8.8,20.5-22,46.5-22c34.6,0,71.7,33.5,71.7,83.3
	s-37.1,83.3-71.7,83.3c-25.9,0-38.3-13.2-46.5-22c-10.6-11-15.1-14.2-15.1,3.6V450h101.7c29.2,0,37,22.2,18.8,40.3
	c-8.8,8.9-20.5,16.2-20.5,37.9c0,24.2,24.6,55.1,66.7,55.1s66.7-30.9,66.7-55.1c0-21.7-11.7-29.1-20.5-37.9
	c-18.2-18.1-10.4-40.3,18.8-40.3h135V50H485.8z"/>
<path class="st0" d="M447.5,483.3v135c0,29.2-22.2,36.9-40.3,18.8c-8.9-8.8-16.2-20.5-38-20.5c-24.1,0-55.1,24.6-55.1,66.7
	s31,66.7,55.1,66.7c21.7,0,29.1-11.7,38-20.5c18.1-18.1,40.3-10.4,40.3,18.8V850h-400V483.3h151.7c31.1,0,45.2-19.2,45.2-37
	c0-15.4-8.3-25.8-18.8-35.8c-7.4-6.9-11.4-10.7-11.4-22.1c0-15.7,17.8-38.4,50-38.4s50,22.7,50,38.4c0,11.5-4,15.2-11.4,22.1
	c-10.5,10.1-18.8,20.4-18.8,35.9c0,17.8,14.1,37,45.2,37H447.5z"/>
<path class="st0" d="M520.3,272c6.9,7.3,10.6,11.4,22.1,11.4c15.7,0,38.4-17.8,38.4-50s-22.7-50-38.4-50c-11.5,0-15.2,4-22.1,11.4
	c-10,10.4-20.4,18.8-35.8,18.8c-17.8,0-37-14.1-37-45.2V50h-400v400h151.7c17.8,0,14.7-4.6,3.6-15.1c-8.7-8.2-21.9-20.5-21.9-46.5
	c0-34.6,33.5-71.7,83.3-71.7s83.3,37.1,83.3,71.7c0,25.9-13.2,38.3-21.9,46.5c-11,10.5-14.3,15.1,3.6,15.1h118.3V298.3
	c0-31.1,19.2-45.2,37-45.2C499.9,253.1,510.3,261.5,520.3,272z"/>
</svg>
