<?xml version="1.0" encoding="utf-8"?>
<!-- Generator: Adobe Illustrator 23.0.3, SVG Export Plug-In . SVG Version: 6.00 Build 0)  -->
<svg version="1.1" id="Layer_1" xmlns="http://www.w3.org/2000/svg" xmlns:xlink="http://www.w3.org/1999/xlink" x="0px" y="0px"
	 viewBox="0 0 900 900" style="enable-background:new 0 0 900 900;" xml:space="preserve">
<style type="text/css">
	.st0{fill:#0054a6;}
</style>
<title>pytorch_logo</title>
<path class="st0" d="M684.3,284.3l-58.6,58.6c97,97.1,97,254.4,0,351.5s-254.4,97-351.5,0s-97-254.4,0-351.5l-0.1-0.1L429,188
	l20.9-20.9l0.1,0.1V50L215.7,284.3c-129.4,129.4-129.4,339.2,0,468.6s339.2,129.4,468.6,0S813.7,413.7,684.3,284.3z"/>
<path class="st0" d="M597.4,256.2c16.8-16.8,16.8-44.1,0-60.9s-44.1-16.8-60.9,0s-16.8,44.1,0,60.9c0,0,0,0,0,0
	C553.3,273.1,580.6,273.1,597.4,256.2C597.4,256.3,597.4,256.3,597.4,256.2z"/>
</svg>
